<svg width="412" height="416" viewBox="0 0 412 416" fill="none" xmlns="http://www.w3.org/2000/svg">
<g clip-path="url(#clip0_724_32)">
<mask id="path-1-inside-1_724_32" fill="white">
<path d="M227.09 112.208C250.845 117.326 271.871 131.043 286.127 150.723C300.382 170.402 306.862 194.657 304.32 218.824C301.778 242.991 290.394 265.366 272.355 281.649C254.317 297.932 230.897 306.974 206.597 307.037C182.296 307.101 158.83 298.181 140.707 281.992C122.584 265.803 111.084 243.487 108.416 219.333C105.748 195.18 112.102 170.892 126.255 151.138C140.408 131.385 161.362 117.559 185.091 112.317L190.834 138.319C173.519 142.144 158.228 152.233 147.901 166.647C137.573 181.062 132.937 198.785 134.884 216.41C136.83 234.035 145.222 250.319 158.447 262.133C171.671 273.946 188.795 280.455 206.527 280.409C224.26 280.363 241.35 273.765 254.512 261.883C267.675 250.001 275.982 233.673 277.837 216.038C279.692 198.403 274.964 180.704 264.562 166.344C254.159 151.983 238.816 141.974 221.482 138.239L227.09 112.208Z"/>
</mask>
<path d="M227.09 112.208C250.845 117.326 271.871 131.043 286.127 150.723C300.382 170.402 306.862 194.657 304.32 218.824C301.778 242.991 290.394 265.366 272.355 281.649C254.317 297.932 230.897 306.974 206.597 307.037C182.296 307.101 158.83 298.181 140.707 281.992C122.584 265.803 111.084 243.487 108.416 219.333C105.748 195.18 112.102 170.892 126.255 151.138C140.408 131.385 161.362 117.559 185.091 112.317L190.834 138.319C173.519 142.144 158.228 152.233 147.901 166.647C137.573 181.062 132.937 198.785 134.884 216.41C136.83 234.035 145.222 250.319 158.447 262.133C171.671 273.946 188.795 280.455 206.527 280.409C224.26 280.363 241.35 273.765 254.512 261.883C267.675 250.001 275.982 233.673 277.837 216.038C279.692 198.403 274.964 180.704 264.562 166.344C254.159 151.983 238.816 141.974 221.482 138.239L227.09 112.208Z" stroke="#9CA2A7" stroke-width="31.04" mask="url(#path-1-inside-1_724_32)"/>
<mask id="path-2-inside-2_724_32" fill="white">
<path d="M351.187 252.587C362.39 215.769 359.152 176.067 342.131 141.552C325.109 107.036 295.583 80.2981 259.554 66.7727C223.525 53.2473 183.697 53.95 148.167 68.7379C112.638 83.5257 84.0727 111.289 68.2797 146.383C52.4866 181.478 50.6507 221.269 63.1452 257.669C75.6396 294.068 101.527 324.344 135.544 342.34C169.561 360.337 209.155 364.704 246.276 354.554C283.398 344.403 315.261 320.497 335.388 287.696L312.571 273.695C296.002 300.697 269.773 320.376 239.215 328.731C208.658 337.087 176.065 333.492 148.062 318.678C120.06 303.863 98.7504 278.941 88.4651 248.977C78.1799 219.014 79.6912 186.258 92.6918 157.369C105.692 128.48 129.206 105.626 158.454 93.4527C187.701 81.2796 220.487 80.7012 250.145 91.8351C279.804 102.969 304.11 124.979 318.121 153.392C332.133 181.804 334.799 214.487 325.577 244.794L351.187 252.587Z"/>
</mask>
<path d="M351.187 252.587C362.39 215.769 359.152 176.067 342.131 141.552C325.109 107.036 295.583 80.2981 259.554 66.7727C223.525 53.2473 183.697 53.95 148.167 68.7379C112.638 83.5257 84.0727 111.289 68.2797 146.383C52.4866 181.478 50.6507 221.269 63.1452 257.669C75.6396 294.068 101.527 324.344 135.544 342.34C169.561 360.337 209.155 364.704 246.276 354.554C283.398 344.403 315.261 320.497 335.388 287.696L312.571 273.695C296.002 300.697 269.773 320.376 239.215 328.731C208.658 337.087 176.065 333.492 148.062 318.678C120.06 303.863 98.7504 278.941 88.4651 248.977C78.1799 219.014 79.6912 186.258 92.6918 157.369C105.692 128.48 129.206 105.626 158.454 93.4527C187.701 81.2796 220.487 80.7012 250.145 91.8351C279.804 102.969 304.11 124.979 318.121 153.392C332.133 181.804 334.799 214.487 325.577 244.794L351.187 252.587Z" stroke="#9CA2A7" stroke-width="33.04" mask="url(#path-2-inside-2_724_32)"/>
<mask id="path-3-inside-3_724_32" fill="white">
<path d="M97.1134 381.188C141.008 408.92 193.808 418.918 244.803 409.153C295.798 399.388 341.169 370.591 371.713 328.604C402.257 286.617 415.687 234.584 409.278 183.059C402.869 131.535 377.101 84.3774 337.202 51.1528C297.302 17.9281 246.259 1.12416 194.426 4.1496C142.592 7.17504 93.8506 29.8033 58.0875 67.4443C22.3244 105.085 2.21806 154.92 1.84696 206.841C1.47587 258.761 20.8678 308.878 56.0892 347.026L75.2169 329.366C44.4793 296.074 27.556 252.337 27.8799 207.027C28.2037 161.716 45.7505 118.225 76.9608 85.376C108.171 52.5268 150.708 32.7792 195.943 30.1389C241.177 27.4986 285.723 42.1634 320.543 71.1584C355.363 100.153 377.85 141.308 383.443 186.273C389.036 231.238 377.317 276.647 350.661 313.289C324.005 349.931 284.41 375.062 239.907 383.584C195.404 392.106 149.325 383.381 111.019 359.179L97.1134 381.188Z"/>
</mask>
<path d="M97.1134 381.188C141.008 408.92 193.808 418.918 244.803 409.153C295.798 399.388 341.169 370.591 371.713 328.604C402.257 286.617 415.687 234.584 409.278 183.059C402.869 131.535 377.101 84.3774 337.202 51.1528C297.302 17.9281 246.259 1.12416 194.426 4.1496C142.592 7.17504 93.8506 29.8033 58.0875 67.4443C22.3244 105.085 2.21806 154.92 1.84696 206.841C1.47587 258.761 20.8678 308.878 56.0892 347.026L75.2169 329.366C44.4793 296.074 27.556 252.337 27.8799 207.027C28.2037 161.716 45.7505 118.225 76.9608 85.376C108.171 52.5268 150.708 32.7792 195.943 30.1389C241.177 27.4986 285.723 42.1634 320.543 71.1584C355.363 100.153 377.85 141.308 383.443 186.273C389.036 231.238 377.317 276.647 350.661 313.289C324.005 349.931 284.41 375.062 239.907 383.584C195.404 392.106 149.325 383.381 111.019 359.179L97.1134 381.188Z" stroke="#9CA2A7" stroke-width="95.04" mask="url(#path-3-inside-3_724_32)"/>
<path d="M205.842 108.742C216.779 108.742 225.941 117.8 225.941 129.342C225.941 140.884 216.779 149.941 205.842 149.941C194.905 149.941 185.742 140.884 185.742 129.342C185.742 117.8 194.905 108.742 205.842 108.742Z" stroke="#9CA2A7" stroke-width="21.8"/>
<path d="M329.881 244.742C340.819 244.742 349.981 253.8 349.981 265.342C349.981 276.884 340.819 285.941 329.881 285.941C318.944 285.941 309.782 276.884 309.782 265.342C309.782 253.8 318.944 244.742 329.881 244.742Z" stroke="#9CA2A7" stroke-width="21.8"/>
<path d="M85.8813 335.202C96.5349 335.202 105.481 344.028 105.481 355.302C105.481 366.575 96.5349 375.401 85.8813 375.401C75.2278 375.401 66.2817 366.575 66.2817 355.302C66.2817 344.028 75.2278 335.202 85.8813 335.202Z" stroke="#9CA2A7" stroke-width="22.8"/>
</g>
<defs>
<clipPath id="clip0_724_32">
<rect width="412" height="416" fill="white"/>
</clipPath>
</defs>
</svg>
