<svg width="411" height="415" viewBox="0 0 411 415" fill="none" xmlns="http://www.w3.org/2000/svg">
<g clip-path="url(#clip0_724_23)">
<mask id="path-1-inside-1_724_23" fill="white">
<path d="M225.248 112.287C249.003 117.405 270.029 131.122 284.285 150.802C298.541 170.482 305.02 194.736 302.478 218.903C299.936 243.07 288.552 265.445 270.514 281.728C252.475 298.011 229.055 307.053 204.755 307.117C180.454 307.18 156.988 298.26 138.865 282.071C120.742 265.882 109.242 243.566 106.574 219.412C103.907 195.259 110.26 170.971 124.413 151.217C138.566 131.464 159.52 117.638 183.249 112.396L186.84 128.653C167.121 133.009 149.708 144.499 137.947 160.914C126.185 177.33 120.906 197.513 123.123 217.585C125.339 237.657 134.896 256.201 149.957 269.654C165.017 283.108 184.518 290.52 204.712 290.468C224.906 290.415 244.368 282.901 259.358 269.37C274.348 255.839 283.808 237.245 285.92 217.161C288.033 197.078 282.648 176.923 270.802 160.569C258.955 144.214 241.483 132.815 221.742 128.562L225.248 112.287Z"/>
</mask>
<path d="M225.248 112.287C249.003 117.405 270.029 131.122 284.285 150.802C298.541 170.482 305.02 194.736 302.478 218.903C299.936 243.07 288.552 265.445 270.514 281.728C252.475 298.011 229.055 307.053 204.755 307.117C180.454 307.18 156.988 298.26 138.865 282.071C120.742 265.882 109.242 243.566 106.574 219.412C103.907 195.259 110.26 170.971 124.413 151.217C138.566 131.464 159.52 117.638 183.249 112.396L186.84 128.653C167.121 133.009 149.708 144.499 137.947 160.914C126.185 177.33 120.906 197.513 123.123 217.585C125.339 237.657 134.896 256.201 149.957 269.654C165.017 283.108 184.518 290.52 204.712 290.468C224.906 290.415 244.368 282.901 259.358 269.37C274.348 255.839 283.808 237.245 285.92 217.161C288.033 197.078 282.648 176.923 270.802 160.569C258.955 144.214 241.483 132.815 221.742 128.562L225.248 112.287Z" stroke="#A5A7A9" stroke-width="27.0365" mask="url(#path-1-inside-1_724_23)"/>
<mask id="path-2-inside-2_724_23" fill="white">
<path d="M349.346 252.666C360.548 215.849 357.31 176.147 340.289 141.631C323.268 107.116 293.741 80.3774 257.712 66.852C221.683 53.3267 181.855 54.0293 146.325 68.8172C110.796 83.6051 82.2309 111.368 66.4379 146.463C50.6448 181.557 48.8089 221.349 61.3034 257.748C73.7978 294.148 99.6849 324.423 133.702 342.42C167.719 360.416 207.313 364.783 244.434 354.633C281.556 344.483 313.419 320.577 333.546 287.775L319.201 278.973C301.311 308.128 272.99 329.377 239.995 338.399C207 347.421 171.808 343.539 141.572 327.543C111.337 311.547 88.3276 284.637 77.2221 252.284C66.1165 219.931 67.7483 184.563 81.7858 153.369C95.8232 122.176 121.213 97.4994 152.793 84.3555C184.373 71.2115 219.773 70.5869 251.797 82.6088C283.821 94.6306 310.065 118.396 325.194 149.075C340.323 179.754 343.201 215.042 333.244 247.767L349.346 252.666Z"/>
</mask>
<path d="M349.346 252.666C360.548 215.849 357.31 176.147 340.289 141.631C323.268 107.116 293.741 80.3774 257.712 66.852C221.683 53.3267 181.855 54.0293 146.325 68.8172C110.796 83.6051 82.2309 111.368 66.4379 146.463C50.6448 181.557 48.8089 221.349 61.3034 257.748C73.7978 294.148 99.6849 324.423 133.702 342.42C167.719 360.416 207.313 364.783 244.434 354.633C281.556 344.483 313.419 320.577 333.546 287.775L319.201 278.973C301.311 308.128 272.99 329.377 239.995 338.399C207 347.421 171.808 343.539 141.572 327.543C111.337 311.547 88.3276 284.637 77.2221 252.284C66.1165 219.931 67.7483 184.563 81.7858 153.369C95.8232 122.176 121.213 97.4994 152.793 84.3555C184.373 71.2115 219.773 70.5869 251.797 82.6088C283.821 94.6306 310.065 118.396 325.194 149.075C340.323 179.754 343.201 215.042 333.244 247.767L349.346 252.666Z" stroke="#A5A7A9" stroke-width="27.0365" mask="url(#path-2-inside-2_724_23)"/>
<mask id="path-3-inside-3_724_23" fill="white">
<path d="M95.2716 381.267C139.166 408.999 191.966 418.997 242.961 409.232C293.956 399.466 339.328 370.67 369.871 328.683C400.415 286.696 413.845 234.663 407.436 183.138C401.027 131.614 375.259 84.4563 335.36 51.2316C295.46 18.007 244.417 1.20301 192.584 4.22845C140.751 7.25389 92.0088 29.8822 56.2457 67.5232C20.4826 105.164 0.376263 154.999 0.0051678 206.919C-0.365928 258.84 19.026 308.957 54.2474 347.105L66.9123 335.412C34.6597 300.479 16.9023 254.586 17.2421 207.043C17.5819 159.499 35.9935 113.864 68.7421 79.3961C101.491 44.9279 146.124 24.207 193.588 21.4366C241.052 18.6661 287.793 34.0537 324.33 64.4778C360.866 94.9019 384.462 138.085 390.33 185.266C396.199 232.447 383.902 280.095 355.932 318.542C327.963 356.99 286.416 383.36 239.719 392.302C193.023 401.244 144.673 392.089 104.479 366.694L95.2716 381.267Z"/>
</mask>
<path d="M95.2716 381.267C139.166 408.999 191.966 418.997 242.961 409.232C293.956 399.466 339.328 370.67 369.871 328.683C400.415 286.696 413.845 234.663 407.436 183.138C401.027 131.614 375.259 84.4563 335.36 51.2316C295.46 18.007 244.417 1.20301 192.584 4.22845C140.751 7.25389 92.0088 29.8822 56.2457 67.5232C20.4826 105.164 0.376263 154.999 0.0051678 206.919C-0.365928 258.84 19.026 308.957 54.2474 347.105L66.9123 335.412C34.6597 300.479 16.9023 254.586 17.2421 207.043C17.5819 159.499 35.9935 113.864 68.7421 79.3961C101.491 44.9279 146.124 24.207 193.588 21.4366C241.052 18.6661 287.793 34.0537 324.33 64.4778C360.866 94.9019 384.462 138.085 390.33 185.266C396.199 232.447 383.902 280.095 355.932 318.542C327.963 356.99 286.416 383.36 239.719 392.302C193.023 401.244 144.673 392.089 104.479 366.694L95.2716 381.267Z" stroke="#9CA2A7" stroke-width="27.0365" mask="url(#path-3-inside-3_724_23)"/>
<path d="M204 98.2814C216.355 98.2814 226.6 108.496 226.6 121.381C226.6 134.266 216.355 144.481 204 144.481C191.645 144.481 181.4 134.266 181.4 121.381C181.4 108.496 191.645 98.2814 204 98.2814Z" stroke="#A5A7A9" stroke-width="16.8"/>
<path d="M334 241.281C346.355 241.281 356.6 251.496 356.6 264.381C356.6 277.266 346.355 287.481 334 287.481C321.645 287.481 311.4 277.266 311.4 264.381C311.4 251.496 321.645 241.281 334 241.281Z" stroke="#A5A7A9" stroke-width="16.8"/>
<path d="M78 332.281C90.3554 332.281 100.6 342.496 100.6 355.381C100.6 368.266 90.3554 378.481 78 378.481C65.6446 378.481 55.4004 368.266 55.4004 355.381C55.4004 342.496 65.6446 332.281 78 332.281Z" stroke="#A5A7A9" stroke-width="16.8"/>
</g>
<defs>
<clipPath id="clip0_724_23">
<rect width="411" height="415" fill="white"/>
</clipPath>
</defs>
</svg>
