<svg width="10664" height="8232" viewBox="0 0 10664 8232" fill="none" xmlns="http://www.w3.org/2000/svg">
<line x1="452.538" y1="5.01384e-08" x2="452.538" y2="8231.32" stroke="black" stroke-width="2.16563"/>
<line x1="936.196" y1="5.01384e-08" x2="936.196" y2="8231.32" stroke="black" stroke-width="2.16563"/>
<line x1="1419.85" y1="5.01384e-08" x2="1419.85" y2="8231.32" stroke="black" stroke-width="2.16563"/>
<line x1="1903.51" y1="5.01384e-08" x2="1903.51" y2="8231.32" stroke="black" stroke-width="2.16563"/>
<line x1="2387.17" y1="4.96589e-08" x2="2387.17" y2="8231.32" stroke="black" stroke-width="2.16563"/>
<line x1="2870.83" y1="4.96589e-08" x2="2870.83" y2="8231.32" stroke="black" stroke-width="2.16563"/>
<line x1="3354.67" y1="4.96589e-08" x2="3354.67" y2="8231.32" stroke="black" stroke-width="2.16563"/>
<line x1="3838.33" y1="4.96589e-08" x2="3838.32" y2="8231.32" stroke="black" stroke-width="2.16563"/>
<line x1="4322.07" y1="4.96589e-08" x2="4322.07" y2="8231.32" stroke="black" stroke-width="2.16563"/>
<line x1="4805.73" y1="4.96589e-08" x2="4805.73" y2="8231.32" stroke="black" stroke-width="2.16563"/>
<line x1="5289.39" y1="4.96589e-08" x2="5289.39" y2="8231.32" stroke="black" stroke-width="2.16563"/>
<line x1="5773.05" y1="4.96589e-08" x2="5773.05" y2="8231.32" stroke="black" stroke-width="2.16563"/>
<line x1="6256.71" y1="4.96589e-08" x2="6256.71" y2="8231.32" stroke="black" stroke-width="2.16563"/>
<line x1="6740.36" y1="4.96589e-08" x2="6740.36" y2="8231.32" stroke="black" stroke-width="2.16563"/>
<line x1="7224.02" y1="4.96589e-08" x2="7224.02" y2="8231.32" stroke="black" stroke-width="2.16563"/>
<line x1="7707.68" y1="4.96589e-08" x2="7707.68" y2="8231.32" stroke="black" stroke-width="2.16563"/>
<line x1="8191.34" y1="5.01384e-08" x2="8191.34" y2="8231.32" stroke="black" stroke-width="2.16563"/>
<line x1="8675" y1="5.01384e-08" x2="8675" y2="8231.32" stroke="black" stroke-width="2.16563"/>
<line x1="9158.66" y1="5.01384e-08" x2="9158.66" y2="8231.32" stroke="black" stroke-width="2.16563"/>
<line x1="9642.32" y1="5.01384e-08" x2="9642.32" y2="8231.32" stroke="black" stroke-width="2.16563"/>
<line x1="10126" y1="5.01384e-08" x2="10126" y2="8231.32" stroke="black" stroke-width="2.16563"/>
<line x1="10663.3" y1="461.923" x2="0.00097643" y2="461.922" stroke="black" stroke-width="2.16563"/>
<line x1="10663.3" y1="945.577" x2="0.00097643" y2="945.576" stroke="black" stroke-width="2.16563"/>
<line x1="10663.3" y1="1429.24" x2="0.00097643" y2="1429.24" stroke="black" stroke-width="2.16563"/>
<line x1="10663.3" y1="1912.9" x2="0.00097643" y2="1912.9" stroke="black" stroke-width="2.16563"/>
<line x1="10663.3" y1="2396.56" x2="0.00097643" y2="2396.56" stroke="black" stroke-width="2.16563"/>
<line x1="10663.3" y1="2880.22" x2="0.00097643" y2="2880.21" stroke="black" stroke-width="2.16563"/>
<line x1="10663.3" y1="3363.88" x2="0.00097643" y2="3363.88" stroke="black" stroke-width="2.16563"/>
<line x1="10663.3" y1="3847.54" x2="0.00097643" y2="3847.54" stroke="black" stroke-width="2.16563"/>
<line x1="10663.3" y1="4331.19" x2="0.00097643" y2="4331.19" stroke="black" stroke-width="2.16563"/>
<line x1="10663.3" y1="4814.85" x2="0.00097643" y2="4814.85" stroke="black" stroke-width="2.16563"/>
<line x1="10663.3" y1="5298.51" x2="0.00097643" y2="5298.51" stroke="black" stroke-width="2.16563"/>
<line x1="10663.3" y1="5782.17" x2="0.00097643" y2="5782.17" stroke="black" stroke-width="2.16563"/>
<line x1="10663.3" y1="6265.83" x2="0.00097643" y2="6265.82" stroke="black" stroke-width="2.16563"/>
<line x1="10663.3" y1="6749.49" x2="0.00097643" y2="6749.49" stroke="black" stroke-width="2.16563"/>
<line x1="10663.3" y1="7233.15" x2="0.00097643" y2="7233.14" stroke="black" stroke-width="2.16563"/>
<line x1="10663.3" y1="7716.8" x2="0.00097643" y2="7716.8" stroke="black" stroke-width="2.16563"/>
</svg>
